<svg width="49" height="49" viewBox="0 0 49 49" fill="none" xmlns="http://www.w3.org/2000/svg">
<path d="M7.48097 11.219C7.35798 11.5733 7.3521 11.9423 7.33054 12.3C7.23989 13.8058 7.38738 15.2807 7.94892 16.6987C8.59278 18.324 9.65559 19.6123 11.0609 20.6329C12.4991 21.6776 14.1244 22.3028 15.81 22.8169C17.4765 23.325 19.0082 24.0928 20.271 25.332C21.5356 26.5732 22.2432 28.0922 22.5338 29.8214C22.6484 30.504 22.6945 31.1929 22.696 31.8853C22.696 31.9681 22.6974 32.0524 22.6842 32.1332C22.6396 32.4047 22.4333 32.5781 22.1908 32.5566C21.9551 32.5355 21.7934 32.3552 21.7924 32.0759C21.7909 31.4948 21.7571 30.9166 21.691 30.3393C21.3901 27.7164 20.0343 25.8206 17.7279 24.5779C16.7973 24.0766 15.8007 23.7508 14.7967 23.4347C12.6588 22.7625 10.7013 21.7692 9.12247 20.1317C7.68775 18.643 6.83712 16.8638 6.53381 14.8274C6.27754 13.1095 6.39464 11.4092 6.87239 9.73631C6.88268 9.70103 6.89542 9.66624 6.90473 9.63047C6.96549 9.3889 7.11347 9.23063 7.36582 9.22818C7.59808 9.22573 7.72891 9.38694 7.80094 9.59274C8.00037 10.1597 8.2635 10.6977 8.54133 11.2288C8.6653 11.4655 8.7976 11.6978 8.92745 11.9315C9.22488 12.4685 9.7482 12.6822 10.2887 12.8537C11.279 13.1678 12.306 13.2751 13.336 13.3554C14.9084 13.4789 16.4847 13.4534 18.0601 13.4779C19.2811 13.4966 20.3783 13.963 21.4195 14.5623C22.3579 15.1028 23.2134 15.7569 23.9974 16.5047C24.0841 16.5875 24.1851 16.6556 24.2649 16.7438C24.3889 16.881 24.481 16.8536 24.606 16.734C25.4071 15.9676 26.2627 15.2704 27.2123 14.6922C28.5054 13.9047 29.8764 13.4147 31.4209 13.4647C32.8301 13.5103 34.2408 13.4613 35.6467 13.3491C36.6938 13.2653 37.7365 13.1408 38.7405 12.7978C39.3442 12.592 39.7965 12.2441 40.0914 11.6571C40.4393 10.9652 40.8103 10.2856 41.0621 9.5506C41.1332 9.34333 41.2787 9.22475 41.4943 9.22671C41.7276 9.22867 41.8603 9.38253 41.9309 9.5898C42.1602 10.265 42.2876 10.9642 42.368 11.6694C42.5488 13.2525 42.4532 14.8166 41.9735 16.3449C41.1895 18.8425 39.5843 20.6721 37.3587 21.9907C36.1455 22.7095 34.8406 23.2093 33.4936 23.6141C32.0785 24.0394 30.7501 24.6401 29.6094 25.6064C28.1967 26.803 27.4401 28.348 27.1839 30.159C27.1001 30.7524 27.0579 31.3497 27.0717 31.95C27.0731 32.0142 27.0741 32.0798 27.0663 32.1435C27.0364 32.3885 26.8575 32.5571 26.6282 32.5605C26.3842 32.5644 26.1818 32.3949 26.1754 32.1327C26.1181 29.7371 26.6057 27.515 28.2599 25.6706C29.3653 24.4378 30.7594 23.6523 32.2872 23.0756C33.3216 22.685 34.4025 22.4312 35.4164 21.978C37.3661 21.1063 39.059 19.9214 40.2115 18.0766C40.9676 16.8668 41.3743 15.5399 41.5041 14.1194C41.5845 13.2418 41.5492 12.3715 41.4399 11.5013C41.4286 11.4111 41.4375 11.3156 41.3463 11.2112C41.2086 11.4582 41.0577 11.685 40.9499 11.931C40.5241 12.9042 39.748 13.4373 38.7631 13.7288C37.7228 14.037 36.6536 14.1644 35.5776 14.2482C34.0052 14.3707 32.4288 14.3477 30.8535 14.3693C29.726 14.3849 28.72 14.8289 27.7679 15.3997C26.6939 16.0436 25.7398 16.8374 24.8706 17.736C24.5286 18.0893 24.337 18.0908 23.994 17.7405C22.9557 16.6806 21.8154 15.7535 20.49 15.0709C19.6438 14.6353 18.7549 14.3541 17.7901 14.3604C16.518 14.3693 15.246 14.3756 13.9759 14.2972C12.6882 14.2174 11.4029 14.111 10.1549 13.745C9.19744 13.4642 8.39433 12.9958 7.96607 12.0369C7.87248 11.8271 7.75145 11.6292 7.63924 11.4283C7.60102 11.3582 7.58975 11.2671 7.48097 11.219Z" fill="#1C1D28"/>
<path d="M31.2483 33.2401C31.2488 31.8941 31.2478 30.5485 31.2493 29.2025C31.2498 28.7463 31.3875 28.6126 31.8466 28.614C34.4078 28.6219 36.7486 30.6559 37.1381 33.2132C37.6061 36.2845 35.6603 39.0123 32.5997 39.5753C29.5642 40.1334 26.5188 37.8496 26.2131 34.7846C26.1959 34.6106 26.1714 34.4367 26.17 34.2623C26.167 33.9046 26.3444 33.6792 26.6159 33.6757C26.8976 33.6718 27.0627 33.8781 27.0725 34.2461C27.1274 36.284 28.5538 38.0799 30.5212 38.587C33.2245 39.2843 35.9097 37.4747 36.2767 34.7072C36.5976 32.2866 34.8493 29.9356 32.4738 29.569C32.1823 29.524 32.1524 29.6229 32.1529 29.8625C32.1587 32.2778 32.1568 34.693 32.1573 37.1077C32.1573 37.2091 32.1617 37.311 32.1533 37.412C32.1279 37.7153 31.952 37.8883 31.682 37.8819C31.4041 37.8755 31.2508 37.7099 31.2498 37.3875C31.2464 36.0057 31.2478 34.6229 31.2483 33.2401Z" fill="#1C1D28"/>
<path d="M12.0824 36.3849C11.8977 36.6971 11.7414 37.018 11.5326 37.3091C10.1802 39.1975 7.86351 40.0501 5.63009 39.4749C3.42558 38.907 1.79633 37.02 1.53712 34.7327C1.51654 34.5499 1.49498 34.3656 1.49841 34.1824C1.50429 33.8879 1.69539 33.6801 1.94039 33.6752C2.20793 33.6699 2.38188 33.8659 2.39903 34.1863C2.49213 35.963 3.29328 37.311 4.84805 38.1911C7.50238 39.6929 11.0534 37.9916 11.5581 34.983C11.5993 34.7366 11.6159 34.4896 11.6282 34.2412C11.6458 33.884 11.8051 33.6904 12.0755 33.6797C12.348 33.6689 12.5268 33.8379 12.5459 34.2108C12.5812 34.8919 12.7145 35.5431 13.0188 36.1561C13.9557 38.0441 15.899 38.8967 17.6277 38.7178C19.6892 38.5047 21.3762 36.9406 21.7217 34.8503C21.7575 34.6327 21.7736 34.4112 21.7873 34.1907C21.8074 33.8673 21.9731 33.6733 22.2416 33.6748C22.4959 33.6762 22.7002 33.8972 22.6914 34.204C22.6742 34.7959 22.5792 35.3765 22.3812 35.9376C21.5463 38.3008 19.2766 39.8306 16.7796 39.6336C14.7583 39.4739 13.2491 38.4596 12.2662 36.6775C12.2137 36.5834 12.1902 36.4702 12.0824 36.3849Z" fill="#1C1D28"/>
<path d="M41.7035 39.6523C40.1742 39.5979 38.6704 38.8761 37.5503 37.3934C37.4474 37.2572 37.368 37.1155 37.395 36.9367C37.4224 36.7564 37.5204 36.6349 37.6963 36.578C37.9114 36.5084 38.0805 36.5873 38.2059 36.7554C38.471 37.1116 38.7567 37.4473 39.1119 37.7178C40.5128 38.7845 42.0568 39.0613 43.6924 38.4062C45.3883 37.7271 46.3497 36.4286 46.5864 34.6082C46.6064 34.4534 46.6182 34.2971 46.63 34.1412C46.651 33.861 46.8255 33.6772 47.0763 33.6748C47.312 33.6723 47.5193 33.8688 47.5286 34.1432C47.5404 34.5024 47.4899 34.8601 47.4208 35.2124C46.9151 37.7736 44.6327 39.6474 41.7035 39.6523Z" fill="#1C1D28"/>
</svg>
